<svg width="60" height="60" viewBox="0 0 60 60" fill="none" xmlns="http://www.w3.org/2000/svg">
<path d="M29.9615 0C13.3707 0 0 13.3707 0 29.9615C0 46.5523 13.4407 59.923 29.9615 59.923C46.5523 59.923 59.923 46.4823 59.923 29.9615C59.993 13.3707 46.5523 0 29.9615 0Z" fill="#830051"/>
<path d="M29.7246 24.0709C28.0446 24.0709 26.3645 23.6509 24.9644 22.8109C22.0243 21.1308 20.2042 17.9106 20.2042 14.5504C20.2042 9.30018 24.4744 4.95996 29.7946 4.95996C35.1149 4.95996 39.3151 9.23018 39.3151 14.4804C39.3151 17.9106 37.495 21.0608 34.5549 22.7409C33.0848 23.6509 31.4047 24.0709 29.7246 24.0709ZM29.7246 5.30998C24.6844 5.30998 20.5542 9.44019 20.5542 14.4804C20.5542 17.7706 22.3043 20.7808 25.1044 22.3908C26.5045 23.1609 28.0446 23.6509 29.6546 23.6509C31.2647 23.6509 32.8748 23.2309 34.2049 22.3908C37.005 20.7808 38.7551 17.7006 38.7551 14.4804C38.8951 9.44019 34.7649 5.30998 29.7246 5.30998Z" fill="white" stroke="white" stroke-width="0.275569" stroke-miterlimit="10"/>
<path d="M15.6529 48.433C10.4027 48.433 6.06244 44.1628 6.06244 38.8425C6.06244 33.5222 10.4027 29.322 15.6529 29.322C17.333 29.322 19.0131 29.742 20.4132 30.5821C23.3533 32.2622 25.1734 35.4823 25.1734 38.8425C25.2434 44.1628 20.9732 48.433 15.6529 48.433ZM15.6529 29.672C10.6127 29.672 6.48246 33.8022 6.48246 38.8425C6.48246 43.8828 10.6127 48.013 15.6529 48.013C20.6932 48.013 24.8234 43.8828 24.8234 38.8425C24.8234 35.5523 23.0733 32.5422 20.2732 30.9321C18.8731 30.0921 17.263 29.672 15.6529 29.672Z" fill="white" stroke="white" stroke-width="0.275569" stroke-miterlimit="10"/>
<path d="M43.7943 48.433C38.544 48.433 34.2038 44.1628 34.2038 38.8425C34.2038 35.4123 36.0239 32.2622 38.964 30.5821C40.4341 29.742 42.0442 29.322 43.7243 29.322C48.9745 29.322 53.3148 33.5922 53.3148 38.9125C53.3148 44.2328 49.0445 48.433 43.7943 48.433ZM43.7943 29.672C42.1842 29.672 40.5741 30.0921 39.2441 30.9321C36.4439 32.5422 34.6938 35.6223 34.6938 38.8425C34.6938 43.8828 38.824 48.013 43.8643 48.013C48.9045 48.013 53.0347 43.8828 53.0347 38.8425C53.0347 33.8022 48.8345 29.672 43.7943 29.672Z" fill="white" stroke="white" stroke-width="0.275569" stroke-miterlimit="10"/>
<path d="M34.4149 39.0527H25.0344L24.8244 38.8427C24.8244 35.5526 23.0743 32.5424 20.2742 30.9323L20.2042 30.6523L24.8944 22.5319L25.1744 22.4619C26.5745 23.232 28.1146 23.722 29.7246 23.722C31.3347 23.722 32.9448 23.302 34.2749 22.4619L34.5549 22.5319L39.2451 30.6523V30.9323C36.445 32.5424 34.6949 35.6226 34.6949 38.8427L34.4149 39.0527ZM25.2444 38.6327H34.2749C34.3449 35.3426 36.095 32.3324 38.8951 30.6523L34.4149 22.8819C33.0148 23.652 31.4047 24.072 29.7946 24.072C28.1846 24.072 26.5745 23.652 25.1744 22.8819L20.6942 30.6523C23.4243 32.4024 25.1744 35.4126 25.2444 38.6327Z" fill="white" stroke="white" stroke-width="0.275569" stroke-miterlimit="10"/>
<mask id="mask0_30_224" style="mask-type:luminance" maskUnits="userSpaceOnUse" x="20" y="5" width="20" height="19">
<path d="M39.1047 14.4815C39.1047 17.9117 37.2146 20.9919 34.4145 22.602C33.0144 23.372 31.4043 23.862 29.7242 23.862C28.0441 23.862 26.4341 23.372 25.034 22.602C22.2338 20.9919 20.3438 17.9817 20.3438 14.4815C20.3438 9.30129 24.544 5.10107 29.7242 5.10107C34.9045 5.17108 39.1047 9.30129 39.1047 14.4815Z" fill="white"/>
</mask>
<g mask="url(#mask0_30_224)">
<path d="M33.5039 9.09119L33.4339 8.88118C32.9439 7.3411 31.5438 6.22105 29.8637 6.22105C28.3237 6.22105 26.9936 7.13109 26.4336 8.60117L26.3636 8.81118L26.0135 8.67117L26.0836 8.46116C26.7136 6.85108 28.1837 5.80103 29.9337 5.80103C31.7538 5.80103 33.3639 6.99108 33.8539 8.74117L33.9239 8.95118L33.5039 9.09119Z" fill="white" stroke="white" stroke-width="0.137785" stroke-miterlimit="10"/>
<path d="M29.9335 14.1316C28.7435 14.1316 27.6234 13.6416 26.8534 12.7315L26.7134 12.5915L26.9934 12.3115L27.1334 12.4515C27.8334 13.2916 28.8835 13.7116 29.9335 13.7116C31.1236 13.7116 32.2437 13.1516 32.9437 12.1715L33.0837 12.0315L33.4337 12.2415L33.2937 12.3815C32.5237 13.4316 31.2636 14.1316 29.9335 14.1316Z" fill="white" stroke="white" stroke-width="0.137785" stroke-miterlimit="10"/>
<path d="M26.9937 12.8008L26.8537 12.6608C26.2237 11.8907 25.8737 10.9807 25.8737 10.0006C25.8737 9.51062 25.9437 9.02059 26.1537 8.53057L26.2237 8.32056L26.5737 8.46056L26.5037 8.67057C26.3637 9.0906 26.2237 9.58062 26.2237 10.0006C26.2237 10.9107 26.5737 11.7507 27.1337 12.4508L27.2737 12.5908L26.9937 12.8008Z" fill="white" stroke="white" stroke-width="0.137785" stroke-miterlimit="10"/>
<path d="M33.1532 12.5208L32.8032 12.3108L32.9432 12.1708C33.3633 11.5407 33.6433 10.7707 33.6433 10.0007C33.6433 9.65064 33.5733 9.30062 33.5033 8.9506L33.4333 8.74059L33.8533 8.60059L33.9233 8.8106C34.0633 9.23062 34.1333 9.58064 34.1333 10.0007C34.1333 10.8407 33.8533 11.6807 33.3633 12.3808L33.1532 12.5208Z" fill="white" stroke="white" stroke-width="0.137785" stroke-miterlimit="10"/>
</g>
<mask id="mask1_30_224" style="mask-type:luminance" maskUnits="userSpaceOnUse" x="20" y="5" width="20" height="19">
<path d="M39.1047 14.4815C39.1047 17.9117 37.2146 20.9919 34.4145 22.602C33.0144 23.372 31.4043 23.862 29.7242 23.862C28.0441 23.862 26.4341 23.372 25.034 22.602C22.2338 20.9919 20.3438 17.9817 20.3438 14.4815C20.3438 9.30129 24.544 5.10107 29.7242 5.10107C34.9045 5.17108 39.1047 9.30129 39.1047 14.4815Z" fill="white"/>
</mask>
<g mask="url(#mask1_30_224)">
<path d="M29.8649 24.562C23.8446 24.562 22.9346 21.6219 22.9346 21.5519V21.4819C22.9346 21.4119 23.0746 14.1315 29.4449 13.7815H29.6549C29.7249 13.7815 29.7949 13.7815 29.9349 13.7815H30.1449C36.5153 14.1315 36.6553 21.4119 36.6553 21.4819V21.5519C36.5853 21.6219 35.8852 24.562 29.8649 24.562ZM23.2846 21.4119C23.3546 21.6919 24.4746 24.142 29.8649 24.142C35.2552 24.142 36.0952 21.6919 36.1652 21.4119C36.1652 21.2019 36.0952 19.4518 35.3252 17.7717C34.2051 15.3916 32.385 14.2015 29.7249 14.1315C27.1348 14.2015 25.2447 15.3916 24.1246 17.7717C23.4246 19.4518 23.2846 21.1319 23.2846 21.4119Z" fill="white" stroke="white" stroke-width="0.137785" stroke-miterlimit="10"/>
</g>
<mask id="mask2_30_224" style="mask-type:luminance" maskUnits="userSpaceOnUse" x="20" y="5" width="20" height="19">
<path d="M39.1047 14.4815C39.1047 17.9117 37.2146 20.9919 34.4145 22.602C33.0144 23.372 31.4043 23.862 29.7242 23.862C28.0441 23.862 26.4341 23.372 25.034 22.602C22.2338 20.9919 20.3438 17.9817 20.3438 14.4815C20.3438 9.30129 24.544 5.10107 29.7242 5.10107C34.9045 5.17108 39.1047 9.30129 39.1047 14.4815Z" fill="white"/>
</mask>
<g mask="url(#mask2_30_224)">
<path d="M26.3638 20.5721C26.0838 20.5721 25.8738 20.3621 25.8738 20.0821C25.8738 19.8021 26.0838 19.592 26.3638 19.592C26.6438 19.592 26.8538 19.8021 26.8538 20.0821C26.8538 20.3621 26.6438 20.5721 26.3638 20.5721ZM26.3638 20.0821C26.2938 20.2221 26.4338 20.2221 26.3638 20.0821C26.4338 20.0821 26.4338 20.0821 26.3638 20.0821Z" fill="white"/>
<path d="M26.3638 20.0821C26.2938 20.2221 26.4338 20.2221 26.3638 20.0821ZM26.3638 20.0821C26.4338 20.0821 26.4338 20.0821 26.3638 20.0821ZM26.3638 20.5721C26.0838 20.5721 25.8738 20.3621 25.8738 20.0821C25.8738 19.8021 26.0838 19.592 26.3638 19.592C26.6438 19.592 26.8538 19.8021 26.8538 20.0821C26.8538 20.3621 26.6438 20.5721 26.3638 20.5721Z" stroke="white" stroke-width="0.137785" stroke-miterlimit="10"/>
</g>
<mask id="mask3_30_224" style="mask-type:luminance" maskUnits="userSpaceOnUse" x="20" y="5" width="20" height="19">
<path d="M39.1047 14.4815C39.1047 17.9117 37.2146 20.9919 34.4145 22.602C33.0144 23.372 31.4043 23.862 29.7242 23.862C28.0441 23.862 26.4341 23.372 25.034 22.602C22.2338 20.9919 20.3438 17.9817 20.3438 14.4815C20.3438 9.30129 24.544 5.10107 29.7242 5.10107C34.9045 5.17108 39.1047 9.30129 39.1047 14.4815Z" fill="white"/>
</mask>
<g mask="url(#mask3_30_224)">
<path d="M27.4838 20.5721C27.2038 20.5721 26.9938 20.3621 26.9938 20.0821C26.9938 19.8021 27.2038 19.592 27.4838 19.592C27.7638 19.592 27.9738 19.8021 27.9738 20.0821C27.9738 20.3621 27.6938 20.5721 27.4838 20.5721ZM27.4838 20.0821C27.4138 20.0821 27.4138 20.0821 27.4838 20.0821C27.4138 20.2221 27.5538 20.2221 27.4838 20.0821Z" fill="white"/>
<path d="M27.4838 20.0821C27.4138 20.0821 27.4138 20.0821 27.4838 20.0821ZM27.4838 20.0821C27.4138 20.2221 27.5538 20.2221 27.4838 20.0821ZM27.4838 20.5721C27.2038 20.5721 26.9938 20.3621 26.9938 20.0821C26.9938 19.8021 27.2038 19.592 27.4838 19.592C27.7638 19.592 27.9738 19.8021 27.9738 20.0821C27.9738 20.3621 27.6938 20.5721 27.4838 20.5721Z" stroke="white" stroke-width="0.137785" stroke-miterlimit="10"/>
</g>
<mask id="mask4_30_224" style="mask-type:luminance" maskUnits="userSpaceOnUse" x="20" y="5" width="20" height="19">
<path d="M39.1047 14.4815C39.1047 17.9117 37.2146 20.9919 34.4145 22.602C33.0144 23.372 31.4043 23.862 29.7242 23.862C28.0441 23.862 26.4341 23.372 25.034 22.602C22.2338 20.9919 20.3438 17.9817 20.3438 14.4815C20.3438 9.30129 24.544 5.10107 29.7242 5.10107C34.9045 5.17108 39.1047 9.30129 39.1047 14.4815Z" fill="white"/>
</mask>
<g mask="url(#mask4_30_224)">
<path d="M26.5745 20.3618H25.1744L24.9644 20.2218C24.9644 20.2218 24.4744 17.2117 26.7845 15.9516L26.9945 15.8816L27.2045 16.2316L26.9945 16.3016C25.1744 17.2817 25.2444 19.3118 25.3144 19.9418H26.5045V20.3618H26.5745Z" fill="white" stroke="white" stroke-width="0.137785" stroke-miterlimit="10"/>
</g>
<mask id="mask5_30_224" style="mask-type:luminance" maskUnits="userSpaceOnUse" x="20" y="5" width="20" height="19">
<path d="M39.1047 14.4815C39.1047 17.9117 37.2146 20.9919 34.4145 22.602C33.0144 23.372 31.4043 23.862 29.7242 23.862C28.0441 23.862 26.4341 23.372 25.034 22.602C22.2338 20.9919 20.3438 17.9817 20.3438 14.4815C20.3438 9.30129 24.544 5.10107 29.7242 5.10107C34.9045 5.17108 39.1047 9.30129 39.1047 14.4815Z" fill="white"/>
</mask>
<g mask="url(#mask5_30_224)">
<path d="M28.6745 20.3618H27.2744V19.9418H28.4645C28.5345 19.3118 28.6045 17.2817 26.7844 16.3016L26.5744 16.2316L26.7844 15.8816L26.9944 15.9516C29.3745 17.2117 28.8145 20.1518 28.8145 20.2218L28.6745 20.3618Z" fill="white" stroke="white" stroke-width="0.137785" stroke-miterlimit="10"/>
</g>
<mask id="mask6_30_224" style="mask-type:luminance" maskUnits="userSpaceOnUse" x="20" y="5" width="20" height="19">
<path d="M39.1047 14.4815C39.1047 17.9117 37.2146 20.9919 34.4145 22.602C33.0144 23.372 31.4043 23.862 29.7242 23.862C28.0441 23.862 26.4341 23.372 25.034 22.602C22.2338 20.9919 20.3438 17.9817 20.3438 14.4815C20.3438 9.30129 24.544 5.10107 29.7242 5.10107C34.9045 5.17108 39.1047 9.30129 39.1047 14.4815Z" fill="white"/>
</mask>
<g mask="url(#mask6_30_224)">
<path d="M27.1335 16.2314H26.7135V16.0214C26.7135 15.3213 26.9935 14.6913 27.5535 14.2013L27.6936 14.0613L27.9736 14.3413L27.8336 14.4813C27.3435 14.9013 27.0635 15.4614 27.0635 16.0214V16.2314H27.1335Z" fill="white" stroke="white" stroke-width="0.137785" stroke-miterlimit="10"/>
</g>
<mask id="mask7_30_224" style="mask-type:luminance" maskUnits="userSpaceOnUse" x="20" y="5" width="20" height="19">
<path d="M39.1047 14.4815C39.1047 17.9117 37.2146 20.9919 34.4145 22.602C33.0144 23.372 31.4043 23.862 29.7242 23.862C28.0441 23.862 26.4341 23.372 25.034 22.602C22.2338 20.9919 20.3438 17.9817 20.3438 14.4815C20.3438 9.30129 24.544 5.10107 29.7242 5.10107C34.9045 5.17108 39.1047 9.30129 39.1047 14.4815Z" fill="white"/>
</mask>
<g mask="url(#mask7_30_224)">
<path d="M32.9441 16.9313H32.5241V16.7213C32.5241 15.9513 32.3141 15.1812 31.8941 14.5512L31.7541 14.4112L32.1041 14.2012L32.2441 14.3412C32.6641 15.0412 32.9441 15.8113 32.9441 16.7213V16.9313Z" fill="white" stroke="white" stroke-width="0.137785" stroke-miterlimit="10"/>
</g>
<mask id="mask8_30_224" style="mask-type:luminance" maskUnits="userSpaceOnUse" x="20" y="5" width="20" height="19">
<path d="M39.1047 14.4815C39.1047 17.9117 37.2146 20.9919 34.4145 22.602C33.0144 23.372 31.4043 23.862 29.7242 23.862C28.0441 23.862 26.4341 23.372 25.034 22.602C22.2338 20.9919 20.3438 17.9817 20.3438 14.4815C20.3438 9.30129 24.544 5.10107 29.7242 5.10107C34.9045 5.17108 39.1047 9.30129 39.1047 14.4815Z" fill="white"/>
</mask>
<g mask="url(#mask8_30_224)">
<path d="M32.7349 18.3313C32.2449 18.3313 31.8249 17.9113 31.8249 17.4213C31.8249 16.9313 32.2449 16.5112 32.7349 16.5112C33.225 16.5112 33.645 16.9313 33.645 17.4213C33.645 17.9113 33.295 18.3313 32.7349 18.3313ZM32.7349 16.9313C32.4549 16.9313 32.2449 17.1413 32.2449 17.4213C32.2449 17.7013 32.4549 17.9113 32.7349 17.9113C33.015 17.9113 33.225 17.7013 33.225 17.4213C33.295 17.1413 33.015 16.9313 32.7349 16.9313Z" fill="white" stroke="white" stroke-width="0.137785" stroke-miterlimit="10"/>
</g>
<path d="M39.1043 14.4815C39.1043 17.9117 37.2142 20.9919 34.4141 22.602C33.014 23.372 31.4039 23.862 29.7239 23.862C28.0438 23.862 26.4337 23.372 25.0336 22.602C22.2335 20.9919 20.3434 17.9817 20.3434 14.4815C20.3434 9.30129 24.5436 5.10107 29.7239 5.10107C34.9041 5.17108 39.1043 9.30129 39.1043 14.4815Z" stroke="white" stroke-width="0.137785" stroke-miterlimit="10"/>
<mask id="mask9_30_224" style="mask-type:luminance" maskUnits="userSpaceOnUse" x="6" y="29" width="20" height="20">
<path d="M25.0334 38.8424C25.0334 42.2726 23.1433 45.3527 20.3432 46.9628C18.9431 47.7328 17.333 48.2229 15.6529 48.2229C13.9728 48.2229 12.3628 47.7328 10.9627 46.9628C8.16256 45.3527 6.27246 42.3426 6.27246 38.8424C6.27246 33.6621 10.4727 29.4619 15.6529 29.4619C20.8332 29.5319 25.0334 33.6621 25.0334 38.8424Z" fill="white"/>
</mask>
<g mask="url(#mask9_30_224)">
<path d="M19.432 33.4518L19.362 33.2418C18.8719 31.7017 17.4719 30.5816 15.7918 30.5816C14.2517 30.5816 12.9216 31.4917 12.3616 32.9618L12.2916 33.1718L11.9416 33.0318L12.0116 32.8218C12.6416 31.2117 14.1117 30.1616 15.8618 30.1616C17.6819 30.1616 19.292 31.3517 19.782 33.1018L19.852 33.3118L19.432 33.4518Z" fill="white" stroke="white" stroke-width="0.137785" stroke-miterlimit="10"/>
<path d="M15.8616 38.4224C14.6716 38.4224 13.5515 37.9323 12.7815 37.0223L12.6415 36.8823L12.9215 36.6023L13.0615 36.7423C13.7615 37.5823 14.8116 38.0023 15.8616 38.0023C17.0517 38.0023 18.1718 37.4423 18.8718 36.4623L19.0118 36.3223L19.3618 36.5323L19.2218 36.6723C18.3818 37.7923 17.1217 38.4224 15.8616 38.4224Z" fill="white" stroke="white" stroke-width="0.137785" stroke-miterlimit="10"/>
<path d="M12.8516 37.1619L12.7116 37.0219C12.0815 36.2518 11.7315 35.3418 11.7315 34.3617C11.7315 33.8717 11.8015 33.3817 12.0115 32.8917L12.0815 32.6816L12.4315 32.8216L12.3615 33.0317C12.2215 33.4517 12.0815 33.9417 12.0815 34.3617C12.0815 35.2718 12.4315 36.1118 12.9916 36.8118L13.1316 36.9519L12.8516 37.1619Z" fill="white" stroke="white" stroke-width="0.137785" stroke-miterlimit="10"/>
<path d="M19.0821 36.8816L18.7321 36.6716L18.8721 36.5316C19.2921 35.9016 19.5721 35.1315 19.5721 34.3615C19.5721 34.0115 19.5021 33.6615 19.4321 33.3114L19.3621 33.1014L19.7821 32.9614L19.8521 33.1714C19.9921 33.5915 20.0621 33.9415 20.0621 34.3615C20.0621 35.2015 19.7821 36.0416 19.2921 36.7416L19.0821 36.8816Z" fill="white" stroke="white" stroke-width="0.137785" stroke-miterlimit="10"/>
<path d="M15.7922 48.9231C9.77186 48.9231 8.86182 45.983 8.86182 45.913V45.843C8.86182 45.773 9.00182 38.4926 15.3721 38.1426H15.5822C15.6522 38.1426 15.7222 38.1426 15.8622 38.1426H16.0722C22.4425 38.4926 22.5825 45.773 22.5825 45.843V45.913C22.4425 45.983 21.8125 48.9231 15.7922 48.9231ZM9.21183 45.773C9.28184 46.053 10.4019 48.5031 15.7922 48.5031C21.1824 48.5031 22.0225 46.053 22.0925 45.773C22.0925 45.5629 22.0225 43.8129 21.2524 42.1328C20.1324 39.7527 18.3123 38.5626 15.6522 38.4926C13.062 38.5626 11.1719 39.7527 10.0519 42.1328C9.28184 43.8129 9.21183 45.4929 9.21183 45.773Z" fill="white" stroke="white" stroke-width="0.137785" stroke-miterlimit="10"/>
</g>
<path d="M25.0336 38.8424C25.0336 42.2726 23.1436 45.3527 20.3434 46.9628C18.9433 47.7328 17.3333 48.2229 15.6532 48.2229C13.9731 48.2229 12.363 47.7328 10.9629 46.9628C8.1628 45.3527 6.27271 42.3426 6.27271 38.8424C6.27271 33.6621 10.4729 29.4619 15.6532 29.4619C20.8334 29.5319 25.0336 33.6621 25.0336 38.8424Z" stroke="white" stroke-width="0.137785" stroke-miterlimit="10"/>
<mask id="mask10_30_224" style="mask-type:luminance" maskUnits="userSpaceOnUse" x="34" y="29" width="20" height="20">
<path d="M53.1752 38.9127C53.1752 42.3429 51.2852 45.423 48.485 47.0331C47.0849 47.8031 45.4749 48.2932 43.7948 48.2932C42.1147 48.2932 40.5046 47.8031 39.1045 47.0331C36.3044 45.423 34.4143 42.4129 34.4143 38.9127C34.4143 33.7324 38.6145 29.5322 43.7948 29.5322C48.975 29.5322 53.1752 33.7324 53.1752 38.9127Z" fill="white"/>
</mask>
<g mask="url(#mask10_30_224)">
<path d="M47.5759 33.5216L47.5059 33.3116C47.0159 31.7715 45.6158 30.6515 43.9357 30.6515C42.3956 30.6515 41.0656 31.5615 40.5055 33.0316L40.4355 33.2416L40.0855 33.1016L40.1555 32.8916C40.7855 31.2815 42.2556 30.2314 44.0057 30.2314C45.8258 30.2314 47.4359 31.4215 47.9259 33.1716L47.9959 33.3816L47.5759 33.5216Z" fill="white" stroke="white" stroke-width="0.137785" stroke-miterlimit="10"/>
<path d="M44.0062 38.4922C42.8162 38.4922 41.6961 38.0022 40.9261 37.0921L40.7861 36.9521L41.0661 36.6721L41.2061 36.8121C41.9061 37.6522 42.9562 38.0722 44.0062 38.0722C45.1963 38.0722 46.3164 37.5121 47.0164 36.5321L47.1564 36.3921L47.5064 36.6021L47.3664 36.7421C46.5264 37.8622 45.3363 38.4922 44.0062 38.4922Z" fill="white" stroke="white" stroke-width="0.137785" stroke-miterlimit="10"/>
<path d="M40.9957 37.2317L40.8557 37.0917C40.2257 36.3216 39.8757 35.4116 39.8757 34.4316C39.8757 33.9415 39.9457 33.4515 40.1557 32.9615L40.2257 32.7515L40.5757 32.8915L40.5057 33.1015C40.3657 33.5215 40.2257 34.0115 40.2257 34.4316C40.2257 35.3416 40.5757 36.1816 41.1357 36.8817L41.2757 37.0217L40.9957 37.2317Z" fill="white" stroke="white" stroke-width="0.137785" stroke-miterlimit="10"/>
<path d="M47.225 36.9519L46.875 36.7419L47.015 36.6019C47.435 35.9719 47.715 35.2018 47.715 34.4318C47.715 34.0818 47.645 33.7318 47.575 33.3818L47.505 33.1717L47.9251 33.0317L47.9951 33.2417C48.1351 33.6618 48.2051 34.0118 48.2051 34.4318C48.2051 35.2719 47.9251 36.1119 47.435 36.8119L47.225 36.9519Z" fill="white" stroke="white" stroke-width="0.137785" stroke-miterlimit="10"/>
<path d="M43.9354 48.9231C37.9151 48.9231 37.005 45.983 37.005 45.913V45.843C37.005 45.773 37.145 38.4926 43.5153 38.1426H43.7253C43.7953 38.1426 43.8653 38.1426 44.0054 38.1426H44.2154C50.5857 38.4926 50.7257 45.773 50.7257 45.843V45.913C50.6557 46.053 49.9557 48.9231 43.9354 48.9231ZM37.355 45.843C37.425 46.123 38.5451 48.5731 43.9354 48.5731C49.3956 48.5731 50.1657 46.123 50.2357 45.843C50.2357 45.633 50.1657 43.8829 49.3956 42.2028C48.2756 39.8227 46.4555 38.6326 43.7953 38.5626C41.2052 38.6326 39.3151 39.8227 38.1951 42.2028C37.425 43.8829 37.355 45.563 37.355 45.843Z" fill="white" stroke="white" stroke-width="0.137785" stroke-miterlimit="10"/>
</g>
<path d="M53.1754 38.9127C53.1754 42.3429 51.2853 45.423 48.4851 47.0331C47.0851 47.8031 45.475 48.2932 43.7949 48.2932C42.1148 48.2932 40.5047 47.8031 39.1047 47.0331C36.3045 45.423 34.4144 42.4129 34.4144 38.9127C34.4144 33.7324 38.6146 29.5322 43.7949 29.5322C48.9752 29.5322 53.1754 33.7324 53.1754 38.9127Z" stroke="white" stroke-width="0.137785" stroke-miterlimit="10"/>
<path d="M17.1937 40.1726C16.3537 40.1726 15.7236 40.8726 15.7236 41.6427C15.7236 42.4127 16.4237 43.1128 17.1937 43.1128C18.0337 43.1128 18.6638 42.4127 18.6638 41.6427C18.6638 40.8726 18.0337 40.1726 17.1937 40.1726ZM17.9637 41.9227H17.4037V42.4827H16.9137V41.9227H16.3537V41.4327H16.9137V40.8726H17.4037V41.4327H17.9637V41.9227Z" fill="white"/>
<path d="M25.0343 23.5113C25.5369 23.5113 25.9443 23.1038 25.9443 22.6012C25.9443 22.0986 25.5369 21.6912 25.0343 21.6912C24.5317 21.6912 24.1242 22.0986 24.1242 22.6012C24.1242 23.1038 24.5317 23.5113 25.0343 23.5113Z" fill="white"/>
<path d="M34.4128 23.5113C34.9154 23.5113 35.3228 23.1038 35.3228 22.6012C35.3228 22.0986 34.9154 21.6912 34.4128 21.6912C33.9102 21.6912 33.5027 22.0986 33.5027 22.6012C33.5027 23.1038 33.9102 23.5113 34.4128 23.5113Z" fill="white"/>
<path d="M39.105 31.6323C39.6076 31.6323 40.015 31.2249 40.015 30.7223C40.015 30.2197 39.6076 29.8123 39.105 29.8123C38.6024 29.8123 38.1949 30.2197 38.1949 30.7223C38.1949 31.2249 38.6024 31.6323 39.105 31.6323Z" fill="white"/>
<path d="M34.4847 39.7527C34.9873 39.7527 35.3947 39.3453 35.3947 38.8427C35.3947 38.3401 34.9873 37.9326 34.4847 37.9326C33.9821 37.9326 33.5746 38.3401 33.5746 38.8427C33.5746 39.3453 33.9821 39.7527 34.4847 39.7527Z" fill="white"/>
<path d="M25.0343 39.7527C25.5369 39.7527 25.9443 39.3453 25.9443 38.8427C25.9443 38.3401 25.5369 37.9326 25.0343 37.9326C24.5317 37.9326 24.1242 38.3401 24.1242 38.8427C24.1242 39.3453 24.5317 39.7527 25.0343 39.7527Z" fill="white"/>
<path d="M20.4143 31.6323C20.9169 31.6323 21.3244 31.2249 21.3244 30.7223C21.3244 30.2197 20.9169 29.8123 20.4143 29.8123C19.9117 29.8123 19.5043 30.2197 19.5043 30.7223C19.5043 31.2249 19.9117 31.6323 20.4143 31.6323Z" fill="white"/>
</svg>
